<svg width="16" height="17" viewBox="0 0 16 17" fill="none" xmlns="http://www.w3.org/2000/svg">
  <g clip-path="url(#clip0_2935_4812)">
    <path
      d="M7.99997 10.6334C9.17818 10.6334 10.1333 9.67824 10.1333 8.50003C10.1333 7.32182 9.17818 6.3667 7.99997 6.3667C6.82176 6.3667 5.86664 7.32182 5.86664 8.50003C5.86664 9.67824 6.82176 10.6334 7.99997 10.6334Z"
      fill="white"></path>
    <path
      d="M5.99998 1.83325L4.77998 3.16659H2.66665C1.93331 3.16659 1.33331 3.76659 1.33331 4.49992V12.4999C1.33331 13.2333 1.93331 13.8333 2.66665 13.8333H13.3333C14.0666 13.8333 14.6666 13.2333 14.6666 12.4999V4.49992C14.6666 3.76659 14.0666 3.16659 13.3333 3.16659H11.22L9.99998 1.83325H5.99998ZM7.99998 11.8333C6.15998 11.8333 4.66665 10.3399 4.66665 8.49992C4.66665 6.65992 6.15998 5.16659 7.99998 5.16659C9.83998 5.16659 11.3333 6.65992 11.3333 8.49992C11.3333 10.3399 9.83998 11.8333 7.99998 11.8333Z"
      fill="white"></path>
  </g>
  <defs>
    <clipPath id="clip0_2935_4812">
      <rect width="16" height="16" fill="white" transform="translate(0 0.5)"></rect>
    </clipPath>
  </defs>
</svg>