<svg width="16" height="17" viewBox="0 0 16 17" fill="none" xmlns="http://www.w3.org/2000/svg">
  <path
    d="M9.33462 3.16803C9.1402 3.16978 8.94594 3.21196 8.76561 3.29563L5.54946 4.78261L5.93618 5.5248C6.24484 6.1188 6.94683 6.39215 7.5755 6.16282L9.32941 5.52349L12.9284 9.01308C13.1877 9.26441 13.3333 9.60944 13.3333 9.97011V10.5001H14.6666V3.83339L12.6666 4.50006L9.90623 3.28521C9.72423 3.20521 9.52903 3.16628 9.33462 3.16803ZM1.33331 3.83339V10.5001H1.99998L6.05076 14.0443C6.77276 14.6757 7.86104 14.639 8.53904 13.961L11.3646 11.1355C11.7152 10.7848 11.8898 10.3266 11.8945 9.86724L9.00128 7.06256L8.03123 7.41542C7.73723 7.52275 7.43047 7.57688 7.11847 7.57688C6.11914 7.57688 5.21325 7.02605 4.75258 6.13938L4.36717 5.39719C4.19917 5.07386 4.17041 4.69498 4.28774 4.35032C4.35574 4.15098 4.47374 3.97739 4.62107 3.83339H1.33331Z"
    fill="white"></path>
</svg>