<svg
  width="41"
  height="41"
  viewBox="0 0 41 41"
  fill="none"
  xmlns="http://www.w3.org/2000/svg"
>
  <g clip-path="url(#clip0_2033_6624)">
    <path
      d="M15.2807 4.25928C14.4838 4.25928 13.7557 4.68428 13.2557 5.43428L11.9557 7.45928H4.80566C2.59941 7.45928 0.805664 9.25303 0.805664 11.4593V30.6593C0.805664 32.8655 2.59941 34.6593 4.80566 34.6593H35.2057C37.4119 34.6593 39.2057 32.8655 39.2057 30.6593V11.4593C39.2057 9.25303 37.4119 7.45928 35.2057 7.45928H27.9557L26.6807 5.40928C26.19 4.6749 25.4525 4.25928 24.6557 4.25928H15.2807ZM8.00566 11.4593C8.88691 11.4593 9.60566 12.178 9.60566 13.0593C9.60566 13.9405 8.88691 14.6593 8.00566 14.6593C7.12441 14.6593 6.40566 13.9405 6.40566 13.0593C6.40566 12.178 7.12441 11.4593 8.00566 11.4593ZM20.0057 12.2593C24.8588 12.2593 28.8057 16.2062 28.8057 21.0593C28.8057 25.9124 24.8588 29.8593 20.0057 29.8593C15.1525 29.8593 11.2057 25.9124 11.2057 21.0593C11.2057 16.2062 15.1525 12.2593 20.0057 12.2593ZM20.0057 13.8593C16.0369 13.8593 12.8057 17.0905 12.8057 21.0593C12.8057 25.0312 16.0369 28.2593 20.0057 28.2593C23.9775 28.2593 27.2057 25.0312 27.2057 21.0593C27.2057 17.0905 23.9775 13.8593 20.0057 13.8593Z"
      fill="url(#paint0_linear_2033_6624)"
    />
  </g>
  <defs>
    <linearGradient
      id="paint0_linear_2033_6624"
      x1="10.5688"
      y1="30.535"
      x2="10.5688"
      y2="-5.77302"
      gradientUnits="userSpaceOnUse"
    >
      <stop stop-color="#D2891C" />
      <stop offset="1" stop-color="#E4B266" />
    </linearGradient>
    <clipPath id="clip0_2033_6624">
      <rect
        width="40"
        height="40"
        fill="white"
        transform="translate(0.00585938 0.259277)"
      />
    </clipPath>
  </defs>
</svg>