<svg width="41" height="41" viewBox="0 0 41 41" fill="none" xmlns="http://www.w3.org/2000/svg">
    <g clip-path="url(#clip0_2033_6636)">
        <path
            d="M8.1659 39.1393C8.00591 39.1393 7.84591 39.0593 7.68591 38.9793C7.44591 38.8193 7.2859 38.4193 7.36591 38.0993L10.8859 24.9793L0.325905 16.4193C0.00590518 16.2593 -0.0740948 15.8593 0.00590516 15.5393C0.0859052 15.2193 0.405905 14.9793 0.725905 14.9793L14.3259 14.2593L19.2059 1.53928C19.3659 1.29928 19.6859 1.05928 20.0059 1.05928C20.3259 1.05928 20.6459 1.29928 20.7259 1.53928L25.6059 14.2593L39.2059 14.9793C39.5259 14.9793 39.8459 15.2193 39.9259 15.5393C40.0059 15.8593 39.9259 16.1793 39.6859 16.4193L29.1259 24.9793L32.6459 38.0993C32.7259 38.4193 32.6459 38.7393 32.3259 38.9793C32.0859 39.1393 31.6859 39.2193 31.4459 38.9793L20.0059 31.6193L8.56591 38.9793C8.4059 39.1393 8.3259 39.1393 8.1659 39.1393Z"
            fill="url(#paint0_linear_2033_6636)"
        />
    </g>
    <defs>
        <linearGradient
            id="paint0_linear_2033_6636"
            x1="10.1416"
            y1="33.9731"
            x2="10.1416"
            y2="-11.5075"
            gradientUnits="userSpaceOnUse"
        >
            <stop stop-color="#D2891C" />
            <stop offset="1" stop-color="#E4B266" />
        </linearGradient>
        <clipPath id="clip0_2033_6636">
            <rect
                width="40"
                height="40"
                fill="white"
                transform="translate(0.00585938 0.259277)"
            />
        </clipPath>
    </defs>
</svg>