<svg
  width="41"
  height="41"
  viewBox="0 0 41 41"
  fill="none"
  xmlns="http://www.w3.org/2000/svg"
>
  <path
    d="M12.7324 5.59261C7.91242 5.59261 4.00586 9.49917 4.00586 14.3192C4.00586 22.709 13.7378 30.7257 18.2845 34.2957C18.2888 34.2992 18.2932 34.3027 18.2975 34.3062C18.3287 34.3306 18.371 34.3654 18.4017 34.3895L18.4043 34.3869C18.8656 34.7354 19.4277 34.9246 20.0059 34.9259C20.5849 34.9252 21.148 34.736 21.61 34.3869V34.3895C21.619 34.3825 21.6323 34.3731 21.6413 34.366C21.6481 34.3607 21.6578 34.3532 21.6647 34.3478C21.6734 34.3401 21.6821 34.3323 21.6908 34.3244C26.2233 30.7671 36.0059 22.7291 36.0059 14.3192C36.0059 9.49917 32.0993 5.59261 27.2793 5.59261C22.6726 5.59261 20.0059 9.59261 20.0059 9.59261C20.0059 9.59261 17.3391 5.59261 12.7324 5.59261Z"
    fill="url(#paint0_linear_2033_6632)"
  />
  <defs>
    <linearGradient
      id="paint0_linear_2033_6632"
      x1="12.1418"
      y1="30.9464"
      x2="12.1418"
      y2="-4.08767"
      gradientUnits="userSpaceOnUse"
    >
      <stop stop-color="#D2891C" />
      <stop offset="1" stop-color="#E4B266" />
    </linearGradient>
  </defs>
</svg>