<svg
  width="41"
  height="41"
  viewBox="0 0 41 41"
  fill="none"
  xmlns="http://www.w3.org/2000/svg"
>
  <path
    d="M16.6727 3.59261C9.32863 3.59261 3.33936 9.58189 3.33936 16.9259C3.33936 24.27 9.32863 30.2593 16.6727 30.2593C20.0459 30.2593 23.1255 28.9877 25.478 26.9097L26.6727 28.1043V30.2593L33.3394 36.9259L36.6727 33.5926L30.006 26.9259H27.8511L26.6564 25.7313C28.7344 23.3788 30.006 20.2992 30.006 16.9259C30.006 9.58189 24.0167 3.59261 16.6727 3.59261ZM16.6727 6.92595C22.2153 6.92595 26.6727 11.3834 26.6727 16.9259C26.6727 22.4685 22.2153 26.9259 16.6727 26.9259C11.1301 26.9259 6.67269 22.4685 6.67269 16.9259C6.67269 11.3834 11.1301 6.92595 16.6727 6.92595ZM13.5477 11.9259C11.591 11.9259 10.006 13.5109 10.006 15.4676C10.006 18.5926 16.6727 23.5926 16.6727 23.5926C16.6727 23.5926 23.3394 18.5926 23.3394 15.4676C23.3394 13.5109 21.7544 11.9259 19.7977 11.9259C18.4344 11.9259 17.2644 12.7035 16.6727 13.8335C16.081 12.7035 14.911 11.9259 13.5477 11.9259Z"
    fill="url(#paint0_linear_2033_6628)"
  />
  <defs>
    <linearGradient
      id="paint0_linear_2033_6628"
      x1="11.8143"
      y1="32.4038"
      x2="11.8143"
      y2="-7.40771"
      gradientUnits="userSpaceOnUse"
    >
      <stop stop-color="#D2891C" />
      <stop offset="1" stop-color="#E4B266" />
    </linearGradient>
  </defs>
</svg>