<svg
  fill="none"
  xmlns="http://www.w3.org/2000/svg"
>
  <path
    d="M2 7.25928L10.1649 12.9747C10.8261 13.4375 11.1567 13.669 11.5163 13.7586C11.8339 13.8378 12.1661 13.8378 12.4837 13.7586C12.8433 13.669 13.1739 13.4375 13.8351 12.9747L22 7.25928M6.8 20.2593H17.2C18.8802 20.2593 19.7202 20.2593 20.362 19.9323C20.9265 19.6447 21.3854 19.1857 21.673 18.6212C22 17.9795 22 17.1394 22 15.4593V9.05928C22 7.37912 22 6.53904 21.673 5.89731C21.3854 5.33282 20.9265 4.87388 20.362 4.58626C19.7202 4.25928 18.8802 4.25928 17.2 4.25928H6.8C5.11984 4.25928 4.27976 4.25928 3.63803 4.58626C3.07354 4.87388 2.6146 5.33282 2.32698 5.89731C2 6.53904 2 7.37912 2 9.05928V15.4593C2 17.1394 2 17.9795 2.32698 18.6212C2.6146 19.1857 3.07354 19.6447 3.63803 19.9323C4.27976 20.2593 5.11984 20.2593 6.8 20.2593Z"
    stroke="white"
    stroke-width="2"
    stroke-linecap="round"
    stroke-linejoin="round"
  />
</svg>