<svg
  viewBox="0 0 21 20"
  fill="none"
  xmlns="http://www.w3.org/2000/svg"
>
  <g clip-path="url(#clip0_1560_17599)">
    <path
      d="M9.5442 1.60996C9.715 1.19932 10.2967 1.19932 10.4675 1.60996L12.5336 6.57744C12.6056 6.75056 12.7684 6.86885 12.9553 6.88383L18.3181 7.31376C18.7615 7.3493 18.9412 7.90256 18.6034 8.19189L14.5176 11.6919C14.3752 11.8139 14.313 12.0053 14.3565 12.1876L15.6048 17.4208C15.708 17.8534 15.2374 18.1954 14.8578 17.9635L10.2665 15.1592C10.1065 15.0615 9.90524 15.0615 9.74523 15.1592L5.15392 17.9635C4.77437 18.1954 4.30374 17.8534 4.40694 17.4208L5.65524 12.1876C5.69875 12.0053 5.63656 11.8139 5.49417 11.6919L1.40827 8.19189C1.0705 7.90256 1.25027 7.3493 1.69359 7.31376L7.0564 6.88383C7.2433 6.86885 7.4061 6.75056 7.47811 6.57744L9.5442 1.60996Z"
      fill="#F2F4F7"
    ></path>
    <g clip-path="url(#clip1_1560_17599)">
      <path
        d="M9.5442 1.60996C9.715 1.19932 10.2967 1.19932 10.4675 1.60996L12.5336 6.57744C12.6056 6.75056 12.7684 6.86885 12.9553 6.88383L18.3181 7.31376C18.7615 7.3493 18.9412 7.90256 18.6034 8.19189L14.5176 11.6919C14.3752 11.8139 14.313 12.0053 14.3565 12.1876L15.6048 17.4208C15.708 17.8534 15.2374 18.1954 14.8578 17.9635L10.2665 15.1592C10.1065 15.0615 9.90524 15.0615 9.74523 15.1592L5.15392 17.9635C4.77437 18.1954 4.30374 17.8534 4.40694 17.4208L5.65524 12.1876C5.69875 12.0053 5.63656 11.8139 5.49417 11.6919L1.40827 8.19189C1.0705 7.90256 1.25027 7.3493 1.69359 7.31376L7.0564 6.88383C7.2433 6.86885 7.4061 6.75056 7.47811 6.57744L9.5442 1.60996Z"
        fill="#FEC84B"
      ></path>
    </g>
  </g>
  <defs>
    <clipPath id="clip0_1560_17599">
      <rect
        width="20"
        height="20"
        fill="white"
        transform="translate(0.00585938)"
      ></rect>
    </clipPath>
    <clipPath id="clip1_1560_17599">
      <rect
        width="20"
        height="20"
        fill="white"
        transform="translate(0.00585938)"
      ></rect>
    </clipPath>
  </defs>
</svg>